%TF.GenerationSoftware,KiCad,Pcbnew,7.0.8*%
%TF.CreationDate,2023-11-19T15:37:24+01:00*%
%TF.ProjectId,Logger,4c6f6767-6572-42e6-9b69-6361645f7063,rev?*%
%TF.SameCoordinates,Original*%
%TF.FileFunction,Paste,Top*%
%TF.FilePolarity,Positive*%
%FSLAX46Y46*%
G04 Gerber Fmt 4.6, Leading zero omitted, Abs format (unit mm)*
G04 Created by KiCad (PCBNEW 7.0.8) date 2023-11-19 15:37:24*
%MOMM*%
%LPD*%
G01*
G04 APERTURE LIST*
G04 Aperture macros list*
%AMRoundRect*
0 Rectangle with rounded corners*
0 $1 Rounding radius*
0 $2 $3 $4 $5 $6 $7 $8 $9 X,Y pos of 4 corners*
0 Add a 4 corners polygon primitive as box body*
4,1,4,$2,$3,$4,$5,$6,$7,$8,$9,$2,$3,0*
0 Add four circle primitives for the rounded corners*
1,1,$1+$1,$2,$3*
1,1,$1+$1,$4,$5*
1,1,$1+$1,$6,$7*
1,1,$1+$1,$8,$9*
0 Add four rect primitives between the rounded corners*
20,1,$1+$1,$2,$3,$4,$5,0*
20,1,$1+$1,$4,$5,$6,$7,0*
20,1,$1+$1,$6,$7,$8,$9,0*
20,1,$1+$1,$8,$9,$2,$3,0*%
G04 Aperture macros list end*
%ADD10RoundRect,0.250000X-1.250000X-0.550000X1.250000X-0.550000X1.250000X0.550000X-1.250000X0.550000X0*%
%ADD11RoundRect,0.250000X-0.262500X-0.450000X0.262500X-0.450000X0.262500X0.450000X-0.262500X0.450000X0*%
%ADD12RoundRect,0.250000X0.450000X-0.262500X0.450000X0.262500X-0.450000X0.262500X-0.450000X-0.262500X0*%
%ADD13R,2.000000X1.500000*%
%ADD14R,2.000000X3.800000*%
%ADD15RoundRect,0.150000X-0.512500X-0.150000X0.512500X-0.150000X0.512500X0.150000X-0.512500X0.150000X0*%
%ADD16RoundRect,0.250000X0.650000X-0.325000X0.650000X0.325000X-0.650000X0.325000X-0.650000X-0.325000X0*%
%ADD17R,1.200000X1.200000*%
%ADD18RoundRect,0.250000X-0.450000X0.262500X-0.450000X-0.262500X0.450000X-0.262500X0.450000X0.262500X0*%
%ADD19RoundRect,0.250000X0.262500X0.450000X-0.262500X0.450000X-0.262500X-0.450000X0.262500X-0.450000X0*%
%ADD20R,0.600000X1.150000*%
%ADD21R,0.300000X1.150000*%
%ADD22RoundRect,0.250000X-0.375000X-0.625000X0.375000X-0.625000X0.375000X0.625000X-0.375000X0.625000X0*%
%ADD23RoundRect,0.250000X-0.550000X1.250000X-0.550000X-1.250000X0.550000X-1.250000X0.550000X1.250000X0*%
%ADD24RoundRect,0.250000X-1.425000X0.362500X-1.425000X-0.362500X1.425000X-0.362500X1.425000X0.362500X0*%
%ADD25R,1.500000X0.900000*%
%ADD26R,0.900000X1.500000*%
%ADD27R,1.050000X1.050000*%
%ADD28R,1.100000X0.250000*%
%ADD29RoundRect,0.250000X0.475000X-0.250000X0.475000X0.250000X-0.475000X0.250000X-0.475000X-0.250000X0*%
%ADD30RoundRect,0.150000X-0.587500X-0.150000X0.587500X-0.150000X0.587500X0.150000X-0.587500X0.150000X0*%
%ADD31RoundRect,0.200000X-0.200000X-0.800000X0.200000X-0.800000X0.200000X0.800000X-0.200000X0.800000X0*%
%ADD32RoundRect,0.250000X-0.650000X0.325000X-0.650000X-0.325000X0.650000X-0.325000X0.650000X0.325000X0*%
%ADD33RoundRect,0.075000X-0.650000X-0.075000X0.650000X-0.075000X0.650000X0.075000X-0.650000X0.075000X0*%
%ADD34RoundRect,0.150000X0.587500X0.150000X-0.587500X0.150000X-0.587500X-0.150000X0.587500X-0.150000X0*%
%ADD35R,1.400000X0.300000*%
G04 APERTURE END LIST*
D10*
%TO.C,C11*%
X68100000Y-73400000D03*
X72500000Y-73400000D03*
%TD*%
D11*
%TO.C,R12*%
X90687500Y-103200000D03*
X92512500Y-103200000D03*
%TD*%
%TO.C,C4*%
X115987500Y-86800000D03*
X117812500Y-86800000D03*
%TD*%
D12*
%TO.C,R3*%
X78200000Y-99812500D03*
X78200000Y-97987500D03*
%TD*%
D13*
%TO.C,U5*%
X76050000Y-78100000D03*
X76050000Y-80400000D03*
D14*
X82350000Y-80400000D03*
D13*
X76050000Y-82700000D03*
%TD*%
D15*
%TO.C,U6*%
X126962500Y-83650000D03*
X126962500Y-84600000D03*
X126962500Y-85550000D03*
X129237500Y-85550000D03*
X129237500Y-84600000D03*
X129237500Y-83650000D03*
%TD*%
D16*
%TO.C,C10*%
X73100000Y-80475000D03*
X73100000Y-77525000D03*
%TD*%
D17*
%TO.C,D1*%
X120300000Y-74900000D03*
X123100000Y-74900000D03*
%TD*%
D18*
%TO.C,R9*%
X126100000Y-70287500D03*
X126100000Y-72112500D03*
%TD*%
%TO.C,C5*%
X78200000Y-94487500D03*
X78200000Y-96312500D03*
%TD*%
D19*
%TO.C,R2*%
X69512500Y-79800000D03*
X67687500Y-79800000D03*
%TD*%
D18*
%TO.C,C7*%
X76100000Y-94487500D03*
X76100000Y-96312500D03*
%TD*%
D19*
%TO.C,C1*%
X96712500Y-97300000D03*
X94887500Y-97300000D03*
%TD*%
D20*
%TO.C,J2*%
X136077500Y-72892500D03*
X135277500Y-72892500D03*
D21*
X134127500Y-72892500D03*
X133127500Y-72892500D03*
X132627500Y-72892500D03*
X131627500Y-72892500D03*
D20*
X129677500Y-72892500D03*
X130477500Y-72892500D03*
D21*
X131127500Y-72892500D03*
X132127500Y-72892500D03*
X133627500Y-72892500D03*
X134627500Y-72892500D03*
%TD*%
D19*
%TO.C,R18*%
X102712500Y-105300000D03*
X100887500Y-105300000D03*
%TD*%
D22*
%TO.C,WRITE1*%
X63100000Y-84200000D03*
X65900000Y-84200000D03*
%TD*%
D18*
%TO.C,R6*%
X80300000Y-94487500D03*
X80300000Y-96312500D03*
%TD*%
D23*
%TO.C,C8*%
X80500000Y-85900000D03*
X80500000Y-90300000D03*
%TD*%
D24*
%TO.C,R1*%
X145500000Y-94337500D03*
X145500000Y-100262500D03*
%TD*%
D25*
%TO.C,U4*%
X90650000Y-74850000D03*
X90650000Y-76120000D03*
X90650000Y-77390000D03*
X90650000Y-78660000D03*
X90650000Y-79930000D03*
X90650000Y-81200000D03*
X90650000Y-82470000D03*
X90650000Y-83740000D03*
X90650000Y-85010000D03*
X90650000Y-86280000D03*
X90650000Y-87550000D03*
X90650000Y-88820000D03*
X90650000Y-90090000D03*
X90650000Y-91360000D03*
D26*
X93690000Y-92610000D03*
X94960000Y-92610000D03*
X96230000Y-92610000D03*
X97500000Y-92610000D03*
X98770000Y-92610000D03*
X100040000Y-92610000D03*
X101310000Y-92610000D03*
X102580000Y-92610000D03*
X103850000Y-92610000D03*
X105120000Y-92610000D03*
D25*
X108150000Y-91360000D03*
X108150000Y-90090000D03*
X108150000Y-88820000D03*
X108150000Y-87550000D03*
X108150000Y-86280000D03*
X108150000Y-85010000D03*
X108150000Y-83740000D03*
X108150000Y-82470000D03*
X108150000Y-81200000D03*
X108150000Y-79930000D03*
X108150000Y-78660000D03*
X108150000Y-77390000D03*
X108150000Y-76120000D03*
X108150000Y-74850000D03*
D27*
X97195000Y-80665000D03*
X97195000Y-82190000D03*
X97195000Y-83715000D03*
X98720000Y-80665000D03*
X98720000Y-82190000D03*
X98720000Y-83715000D03*
X100245000Y-80665000D03*
X100245000Y-82190000D03*
X100245000Y-83715000D03*
%TD*%
D11*
%TO.C,R10*%
X90687500Y-101200000D03*
X92512500Y-101200000D03*
%TD*%
D28*
%TO.C,U2*%
X95450000Y-99700000D03*
X95450000Y-100200000D03*
X95450000Y-100700000D03*
X95450000Y-101200000D03*
X95450000Y-101700000D03*
X99750000Y-101700000D03*
X99750000Y-101200000D03*
X99750000Y-100700000D03*
X99750000Y-100200000D03*
X99750000Y-99700000D03*
%TD*%
D11*
%TO.C,R4*%
X117987500Y-79800000D03*
X119812500Y-79800000D03*
%TD*%
D12*
%TO.C,R15*%
X115000000Y-95412500D03*
X115000000Y-93587500D03*
%TD*%
D19*
%TO.C,R17*%
X104512500Y-103200000D03*
X102687500Y-103200000D03*
%TD*%
D11*
%TO.C,R20*%
X104687500Y-98900000D03*
X106512500Y-98900000D03*
%TD*%
D18*
%TO.C,R8*%
X139500000Y-70287500D03*
X139500000Y-72112500D03*
%TD*%
D29*
%TO.C,C2*%
X88300000Y-76450000D03*
X88300000Y-74550000D03*
%TD*%
D19*
%TO.C,R19*%
X104512500Y-101200000D03*
X102687500Y-101200000D03*
%TD*%
D30*
%TO.C,Q2*%
X113462500Y-77850000D03*
X113462500Y-79750000D03*
X115337500Y-78800000D03*
%TD*%
D19*
%TO.C,R7*%
X119812500Y-77300000D03*
X117987500Y-77300000D03*
%TD*%
%TO.C,R5*%
X69512500Y-84200000D03*
X67687500Y-84200000D03*
%TD*%
D22*
%TO.C,PWR1*%
X63100000Y-79800000D03*
X65900000Y-79800000D03*
%TD*%
D18*
%TO.C,R16*%
X74200000Y-94487500D03*
X74200000Y-96312500D03*
%TD*%
D31*
%TO.C,RST1*%
X62400000Y-89600000D03*
X66600000Y-89600000D03*
%TD*%
D32*
%TO.C,C9*%
X76000000Y-85025000D03*
X76000000Y-87975000D03*
%TD*%
D33*
%TO.C,U1*%
X135300000Y-97000000D03*
X135300000Y-97500000D03*
X135300000Y-98000000D03*
X135300000Y-98500000D03*
X135300000Y-99000000D03*
X139700000Y-99000000D03*
X139700000Y-98500000D03*
X139700000Y-98000000D03*
X139700000Y-97500000D03*
X139700000Y-97000000D03*
%TD*%
D11*
%TO.C,R13*%
X92487500Y-105300000D03*
X94312500Y-105300000D03*
%TD*%
D18*
%TO.C,C3*%
X139700000Y-100787500D03*
X139700000Y-102612500D03*
%TD*%
D34*
%TO.C,Q1*%
X124837500Y-79750000D03*
X124837500Y-77850000D03*
X122962500Y-78800000D03*
%TD*%
D12*
%TO.C,C6*%
X85500000Y-78412500D03*
X85500000Y-76587500D03*
%TD*%
%TO.C,R14*%
X112700000Y-95412500D03*
X112700000Y-93587500D03*
%TD*%
D19*
%TO.C,R11*%
X90512500Y-98900000D03*
X88687500Y-98900000D03*
%TD*%
D35*
%TO.C,U3*%
X120400000Y-84800000D03*
X120400000Y-84300000D03*
X120400000Y-83800000D03*
X120400000Y-83300000D03*
X120400000Y-82800000D03*
X116000000Y-82800000D03*
X116000000Y-83300000D03*
X116000000Y-83800000D03*
X116000000Y-84300000D03*
X116000000Y-84800000D03*
%TD*%
M02*
