M48
; DRILL file {KiCad 7.0.8} date Sun Nov 19 15:37:22 2023
; FORMAT={-:-/ absolute / inch / decimal}
; #@! TF.CreationDate,2023-11-19T15:37:22+01:00
; #@! TF.GenerationSoftware,Kicad,Pcbnew,7.0.8
; #@! TF.FileFunction,Plated,1,2,PTH
FMAT,2
INCH
; #@! TA.AperFunction,Plated,PTH,ViaDrill
T1C0.0079
; #@! TA.AperFunction,Plated,PTH,ComponentDrill
T2C0.0079
; #@! TA.AperFunction,Plated,PTH,ViaDrill
T3C0.0118
; #@! TA.AperFunction,Plated,PTH,ComponentDrill
T4C0.0197
; #@! TA.AperFunction,Plated,PTH,ComponentDrill
T5C0.0236
; #@! TA.AperFunction,Plated,PTH,ComponentDrill
T6C0.1260
; #@! TA.AperFunction,Plated,PTH,ComponentDrill
T7C0.1693
%
G90
G05
T1
X2.7874Y-3.315
X2.8425Y-3.7921
X3.4213Y-3.0866
X3.4252Y-3.3976
X3.5118Y-3.3465
X3.5118Y-3.3976
X3.5157Y-3.5472
X3.626Y-3.0472
X3.7402Y-3.7165
X3.7835Y-3.7205
X3.8386Y-3.7283
X3.9252Y-3.8661
X4.2008Y-3.0472
X4.2008Y-3.0984
X4.315Y-3.5984
X4.3504Y-3.7205
X4.3504Y-3.7913
X4.3858Y-3.1309
X4.4685Y-3.2717
X4.4685Y-3.3268
X4.6063Y-3.6732
X4.7756Y-3.1024
X5.2216Y-2.9213
X5.2638Y-2.9213
T2
X3.8266Y-3.2058
X3.8266Y-3.2658
X3.8566Y-3.1758
X3.8566Y-3.2358
X3.8566Y-3.2959
X3.8866Y-3.2058
X3.8866Y-3.2658
X3.9166Y-3.1758
X3.9166Y-3.2358
X3.9166Y-3.2959
X3.9467Y-3.2058
X3.9467Y-3.2658
T3
X2.7441Y-3.8346
X2.9252Y-3.2559
X2.9685Y-2.9213
X2.9685Y-2.9724
X3.0197Y-2.9213
X3.0197Y-2.9724
X3.3701Y-3.8661
X3.3701Y-3.9173
X3.4213Y-3.8661
X3.4213Y-3.9173
X3.8169Y-4.0965
X3.8169Y-4.1476
X3.8169Y-4.2146
X3.8169Y-4.2657
X3.8681Y-4.0965
X3.8681Y-4.1476
X3.8681Y-4.2146
X3.8681Y-4.2657
X3.8784Y-3.8307
X4.2638Y-3.8661
X4.2638Y-3.9173
X4.315Y-3.8661
X4.315Y-3.9173
X4.622Y-2.9488
X4.8465Y-3.1969
X4.9173Y-2.9488
X4.9409Y-2.9055
X4.9409Y-3.3307
X4.9921Y-2.9055
X5.1378Y-2.9646
X5.3268Y-2.9646
X5.4646Y-2.9055
X5.5197Y-2.9055
X5.6575Y-3.6535
X5.6575Y-4.0079
X5.6929Y-3.6535
X5.6929Y-4.0079
X5.7283Y-3.6535
X5.7283Y-4.0079
X5.7638Y-3.6535
X5.7638Y-4.0079
X5.7992Y-3.6535
X5.7992Y-4.0079
T4
X5.8543Y-3.6535
X5.8543Y-4.0079
T6
X2.2283Y-2.7835
X2.2283Y-5.1457
X5.8504Y-2.7835
X5.8504Y-5.1457
T7
X2.6614Y-4.437
X2.6614Y-5.0276
X3.4488Y-4.437
X3.4488Y-5.0276
X4.2362Y-4.437
X4.2362Y-5.0276
X5.0236Y-4.437
X5.0236Y-5.0276
X5.7283Y-3.3583
X5.7283Y-4.3031
T5
G00X5.0613Y-2.6983
M15
G01X5.0613Y-2.6668
M16
G05
G00X5.0613Y-2.8688
M15
G01X5.0613Y-2.8255
M16
G05
G00X5.4015Y-2.6983
M15
G01X5.4015Y-2.6668
M16
G05
G00X5.4015Y-2.8688
M15
G01X5.4015Y-2.8255
M16
G05
T0
M30
