%TF.GenerationSoftware,KiCad,Pcbnew,7.0.8*%
%TF.CreationDate,2023-11-19T15:37:25+01:00*%
%TF.ProjectId,Logger,4c6f6767-6572-42e6-9b69-6361645f7063,rev?*%
%TF.SameCoordinates,Original*%
%TF.FileFunction,Soldermask,Bot*%
%TF.FilePolarity,Negative*%
%FSLAX46Y46*%
G04 Gerber Fmt 4.6, Leading zero omitted, Abs format (unit mm)*
G04 Created by KiCad (PCBNEW 7.0.8) date 2023-11-19 15:37:25*
%MOMM*%
%LPD*%
G01*
G04 APERTURE LIST*
G04 Aperture macros list*
%AMRoundRect*
0 Rectangle with rounded corners*
0 $1 Rounding radius*
0 $2 $3 $4 $5 $6 $7 $8 $9 X,Y pos of 4 corners*
0 Add a 4 corners polygon primitive as box body*
4,1,4,$2,$3,$4,$5,$6,$7,$8,$9,$2,$3,0*
0 Add four circle primitives for the rounded corners*
1,1,$1+$1,$2,$3*
1,1,$1+$1,$4,$5*
1,1,$1+$1,$6,$7*
1,1,$1+$1,$8,$9*
0 Add four rect primitives between the rounded corners*
20,1,$1+$1,$2,$3,$4,$5,0*
20,1,$1+$1,$4,$5,$6,$7,0*
20,1,$1+$1,$6,$7,$8,$9,0*
20,1,$1+$1,$8,$9,$2,$3,0*%
G04 Aperture macros list end*
%ADD10C,5.600000*%
%ADD11C,7.500000*%
%ADD12C,0.650000*%
%ADD13O,1.204000X2.304000*%
%ADD14RoundRect,0.352000X0.250000X0.650000X-0.250000X0.650000X-0.250000X-0.650000X0.250000X-0.650000X0*%
%ADD15R,0.850000X0.850000*%
%ADD16C,0.950000*%
%ADD17RoundRect,0.102000X0.700000X-0.310000X0.700000X0.310000X-0.700000X0.310000X-0.700000X-0.310000X0*%
%ADD18RoundRect,0.102000X1.200000X-0.550000X1.200000X0.550000X-1.200000X0.550000X-1.200000X-0.550000X0*%
G04 APERTURE END LIST*
D10*
%TO.C,H1*%
X56600000Y-70700000D03*
%TD*%
D11*
%TO.C,GND3*%
X107600000Y-127700000D03*
%TD*%
%TO.C,GND1*%
X67600000Y-127700000D03*
%TD*%
%TO.C,AIN2*%
X87600000Y-112700000D03*
%TD*%
D10*
%TO.C,H3*%
X148600000Y-130700000D03*
%TD*%
D11*
%TO.C,AIN4*%
X127600000Y-112700000D03*
%TD*%
%TO.C,AIN3*%
X107600000Y-112700000D03*
%TD*%
D12*
%TO.C,J2*%
X135767500Y-71817500D03*
X129987500Y-71817500D03*
D13*
X137197500Y-72317500D03*
X128557500Y-72317500D03*
D14*
X137197500Y-68137500D03*
X128557500Y-68137500D03*
%TD*%
D11*
%TO.C,I+1*%
X145500000Y-85300000D03*
%TD*%
D10*
%TO.C,H4*%
X56600000Y-130700000D03*
%TD*%
D11*
%TO.C,I-1*%
X145500000Y-109300000D03*
%TD*%
%TO.C,GND4*%
X127600000Y-127700000D03*
%TD*%
%TO.C,AIN1*%
X67600000Y-112700000D03*
%TD*%
D15*
%TO.C,J3*%
X148700000Y-92800000D03*
%TD*%
%TO.C,J4*%
X148700000Y-101800000D03*
%TD*%
D10*
%TO.C,H2*%
X148600000Y-70700000D03*
%TD*%
D11*
%TO.C,GND2*%
X87600000Y-127700000D03*
%TD*%
D16*
%TO.C,J1*%
X56900000Y-100100000D03*
X56900000Y-93300000D03*
D17*
X68320000Y-94120000D03*
X68320000Y-95220000D03*
X68320000Y-96320000D03*
X68320000Y-97420000D03*
X68320000Y-98520000D03*
X68320000Y-99620000D03*
X68320000Y-100720000D03*
X68320000Y-101820000D03*
X68320000Y-102920000D03*
D18*
X57320000Y-104300000D03*
X66320000Y-104300000D03*
X66320000Y-88150000D03*
X57320000Y-88150000D03*
%TD*%
M02*
